<svg xmlns="http://www.w3.org/2000/svg" xmlns:xlink="http://www.w3.org/1999/xlink" enable-background="new 0 0 512 512" id="Layer_1" version="1.1" xml:space="preserve" viewBox="75.9 128 360.3 256"><g><g><path d="M219.7,313.3c-3.1,0-6.1-1.6-7.8-4.5c-2.5-4.3-1-9.8,3.3-12.3l78.6-45.5l-65.1-38.7v49.4c0,5-4,9-9,9    s-9-4-9-9v-65.2c0-3.2,1.7-6.2,4.6-7.8s6.3-1.6,9.1,0.1l91.9,54.7c2.7,1.6,4.4,4.6,4.4,7.8c0,3.2-1.7,6.1-4.5,7.7l-91.9,53.2    C222.8,312.9,221.3,313.3,219.7,313.3z" fill="#FF0000"/><path d="M385.6,384H122.4c-5,0-9-4-9-9s4-9,9-9h263.2c18,0,32.6-14.8,32.6-32.9V178.9c0-18.2-14.6-32.9-32.6-32.9    H126.8c-17.8,0-32.9,15.1-32.9,32.9v150.2c0,5-4,9-9,9s-9-4-9-9V178.9c0-28.1,22.8-50.9,50.9-50.9h258.8    c27.9,0,50.6,22.8,50.6,50.9v154.2C436.1,361.2,413.5,384,385.6,384z" fill="#FF0000"/></g></g></svg>